<svg xmlns="http://www.w3.org/2000/svg" width="171" height="55" viewBox="0 0 171 55">
  <g id="Group_4" data-name="Group 4" transform="translate(-986 -576)">
    <rect id="Rectangle_4" data-name="Rectangle 4" width="171" height="55" rx="6" transform="translate(986 576)" fill="#fff"/>
    <path id="Path_477" data-name="Path 477" d="M45.872,28.546a7,7,0,0,1,3.332-5.87,7.165,7.165,0,0,0-5.643-3.051c-2.374-.25-4.676,1.42-5.885,1.42-1.233,0-3.1-1.4-5.1-1.355a7.513,7.513,0,0,0-6.323,3.857c-2.735,4.734-.7,11.691,1.925,15.518,1.311,1.874,2.842,3.967,4.846,3.893,1.961-.081,2.694-1.25,5.06-1.25,2.345,0,3.033,1.25,5.077,1.2,2.1-.034,3.43-1.883,4.694-3.774A15.487,15.487,0,0,0,50,34.765,6.762,6.762,0,0,1,45.872,28.546Z" transform="translate(981.694 573.875)"/>
    <path id="Path_478" data-name="Path 478" d="M45.288,15.152a6.885,6.885,0,0,0,1.576-4.934,7.014,7.014,0,0,0-4.535,2.346,6.553,6.553,0,0,0-1.617,4.752A5.793,5.793,0,0,0,45.288,15.152Z" transform="translate(978.417 574.336)"/>
    <path id="Path_479" data-name="Path 479" d="M83.662,44.539H80.921l-1.5-4.717H74.2l-1.43,4.717H70.1l5.17-16.06h3.193Zm-4.694-6.7L77.61,33.649q-.215-.643-.81-3.025h-.048q-.237,1.025-.763,3.025l-1.333,4.194Z" transform="translate(972.284 572.349)"/>
    <path id="Path_480" data-name="Path 480" d="M101.091,39.724a6.583,6.583,0,0,1-1.6,4.669,4.67,4.67,0,0,1-3.551,1.525,3.55,3.55,0,0,1-3.288-1.644h-.048v6.1H90.034V37.888q0-1.857-.1-3.812H92.2l.144,1.835h.048a4.578,4.578,0,0,1,7.327-.454A6.383,6.383,0,0,1,101.091,39.724Zm-2.622.094a4.769,4.769,0,0,0-.762-2.788,2.634,2.634,0,0,0-2.24-1.144,2.675,2.675,0,0,0-1.727.631,2.928,2.928,0,0,0-1.013,1.657,3.368,3.368,0,0,0-.119.784v1.931a3.094,3.094,0,0,0,.775,2.134,2.568,2.568,0,0,0,2.013.87,2.634,2.634,0,0,0,2.263-1.12A4.928,4.928,0,0,0,98.469,39.818Z" transform="translate(968.15 572.593)"/>
    <path id="Path_481" data-name="Path 481" d="M117.917,39.724a6.576,6.576,0,0,1-1.6,4.669,4.663,4.663,0,0,1-3.549,1.525,3.548,3.548,0,0,1-3.287-1.644h-.048v6.1h-2.573V37.888q0-1.857-.1-3.812h2.263l.143,1.835h.048a4.579,4.579,0,0,1,7.328-.454A6.4,6.4,0,0,1,117.917,39.724Zm-2.622.094a4.764,4.764,0,0,0-.764-2.788,2.629,2.629,0,0,0-2.238-1.144,2.68,2.68,0,0,0-1.729.631,2.928,2.928,0,0,0-1.011,1.657,3.438,3.438,0,0,0-.12.784v1.931a3.1,3.1,0,0,0,.773,2.134,2.573,2.573,0,0,0,2.015.87,2.633,2.633,0,0,0,2.262-1.12A4.929,4.929,0,0,0,115.3,39.818Z" transform="translate(964.643 572.593)"/>
    <path id="Path_482" data-name="Path 482" d="M137.042,39.974a4.28,4.28,0,0,1-1.426,3.336,6.322,6.322,0,0,1-4.374,1.406,7.658,7.658,0,0,1-4.162-1l.6-2.144a7.054,7.054,0,0,0,3.719,1.026,3.517,3.517,0,0,0,2.266-.656,2.144,2.144,0,0,0,.808-1.755,2.235,2.235,0,0,0-.667-1.646,6.2,6.2,0,0,0-2.216-1.242q-4.218-1.573-4.216-4.605a4.076,4.076,0,0,1,1.478-3.245,5.829,5.829,0,0,1,3.932-1.265,7.794,7.794,0,0,1,3.644.763l-.644,2.1a6.321,6.321,0,0,0-3.073-.739,3.11,3.11,0,0,0-2.119.667,1.9,1.9,0,0,0-.644,1.454A1.963,1.963,0,0,0,130.681,34a8.347,8.347,0,0,0,2.337,1.239,7.923,7.923,0,0,1,3.049,1.953A4.078,4.078,0,0,1,137.042,39.974Z" transform="translate(960.409 572.419)"/>
    <path id="Path_483" data-name="Path 483" d="M148.554,35.31h-2.835v5.622q0,2.145,1.5,2.144a4.577,4.577,0,0,0,1.143-.12l.071,1.954a5.835,5.835,0,0,1-2,.285,3.087,3.087,0,0,1-2.383-.929,4.565,4.565,0,0,1-.858-3.122V35.307H141.5V33.377h1.689v-2.12l2.528-.763v2.883h2.835Z" transform="translate(957.404 572.006)"/>
    <path id="Path_484" data-name="Path 484" d="M163.589,39.771a6.351,6.351,0,0,1-1.525,4.384,5.446,5.446,0,0,1-4.243,1.763,5.179,5.179,0,0,1-4.061-1.691,6.159,6.159,0,0,1-1.513-4.265,6.288,6.288,0,0,1,1.56-4.407,5.4,5.4,0,0,1,4.2-1.716,5.287,5.287,0,0,1,4.1,1.692A6.087,6.087,0,0,1,163.589,39.771Zm-2.669.083a5.208,5.208,0,0,0-.69-2.748,2.541,2.541,0,0,0-2.31-1.385,2.579,2.579,0,0,0-2.359,1.385,5.308,5.308,0,0,0-.69,2.8,5.2,5.2,0,0,0,.69,2.747,2.629,2.629,0,0,0,4.646-.024A5.229,5.229,0,0,0,160.92,39.854Z" transform="translate(955.164 571.399)"/>
    <path id="Path_485" data-name="Path 485" d="M175.509,36.339a4.476,4.476,0,0,0-.811-.071,2.431,2.431,0,0,0-2.1,1.026,3.857,3.857,0,0,0-.644,2.287v6.076h-2.572l.025-7.933q0-2-.1-3.646h2.241l.094,2.216h.071a3.959,3.959,0,0,1,1.286-1.834,3.11,3.11,0,0,1,1.859-.62,4.14,4.14,0,0,1,.644.047Z" transform="translate(951.607 571.381)"/>
    <path id="Path_486" data-name="Path 486" d="M188.966,39.313a6.022,6.022,0,0,1-.094,1.167h-7.719a3.358,3.358,0,0,0,1.12,2.622,3.823,3.823,0,0,0,2.524.81,8.533,8.533,0,0,0,3.123-.548l.4,1.786a9.66,9.66,0,0,1-3.883.716,5.625,5.625,0,0,1-4.231-1.585,5.854,5.854,0,0,1-1.536-4.253,6.634,6.634,0,0,1,1.431-4.36,4.931,4.931,0,0,1,4.049-1.857,4.315,4.315,0,0,1,3.79,1.857A6.265,6.265,0,0,1,188.966,39.313Zm-2.454-.667a3.488,3.488,0,0,0-.5-1.978,2.247,2.247,0,0,0-2.05-1.073,2.441,2.441,0,0,0-2.048,1.049,3.84,3.84,0,0,0-.761,2h5.359Z" transform="translate(949.656 571.401)"/>
    <path id="Path_487" data-name="Path 487" d="M78.52,14.994A3.961,3.961,0,0,1,77.243,18.2a5.078,5.078,0,0,1-3.358.994,15.568,15.568,0,0,1-1.85-.094V11.341a13.653,13.653,0,0,1,2.178-.164,4.7,4.7,0,0,1,3.126.9A3.643,3.643,0,0,1,78.52,14.994Zm-1.333.035a2.884,2.884,0,0,0-.731-2.119,2.883,2.883,0,0,0-2.137-.737,5.354,5.354,0,0,0-1.019.082v5.9a6.676,6.676,0,0,0,.854.035,2.992,2.992,0,0,0,2.241-.807A3.233,3.233,0,0,0,77.186,15.029Z" transform="translate(971.882 574.221)"/>
    <path id="Path_488" data-name="Path 488" d="M87.692,16.8a3.12,3.12,0,0,1-.749,2.154,2.675,2.675,0,0,1-2.084.866,2.542,2.542,0,0,1-2-.831,3.028,3.028,0,0,1-.742-2.095,3.09,3.09,0,0,1,.766-2.165,2.658,2.658,0,0,1,2.066-.842,2.6,2.6,0,0,1,2.014.83A3,3,0,0,1,87.692,16.8Zm-1.312.041a2.573,2.573,0,0,0-.339-1.35,1.249,1.249,0,0,0-1.134-.681,1.269,1.269,0,0,0-1.16.681,2.607,2.607,0,0,0-.339,1.373,2.573,2.573,0,0,0,.339,1.35,1.276,1.276,0,0,0,1.148.681,1.262,1.262,0,0,0,1.134-.693A2.556,2.556,0,0,0,86.381,16.84Z" transform="translate(969.779 573.806)"/>
    <path id="Path_489" data-name="Path 489" d="M98.966,14.032l-1.78,5.689H96.027l-.737-2.47a18.48,18.48,0,0,1-.457-1.838h-.023a13.452,13.452,0,0,1-.457,1.838l-.783,2.47H92.4l-1.674-5.689h1.3l.643,2.7q.234.959.386,1.826h.023q.141-.713.469-1.814l.807-2.715h1.031l.774,2.657q.281.972.456,1.873h.035a17.922,17.922,0,0,1,.386-1.873l.69-2.657h1.242Z" transform="translate(967.987 573.78)"/>
    <path id="Path_490" data-name="Path 490" d="M108.105,19.69H106.84V16.431q0-1.506-1.146-1.506a1.141,1.141,0,0,0-.913.414,1.47,1.47,0,0,0-.351.975v3.374h-1.264V15.626q0-.749-.046-1.628h1.111l.059.889h.035a1.824,1.824,0,0,1,.655-.687,2.136,2.136,0,0,1,1.146-.32,1.814,1.814,0,0,1,1.324.515,2.5,2.5,0,0,1,.655,1.885Z" transform="translate(965.403 573.804)"/>
    <path id="Path_491" data-name="Path 491" d="M113.491,19.034h-1.263v-8.3h1.263Z" transform="translate(963.505 574.286)"/>
    <path id="Path_492" data-name="Path 492" d="M121.763,16.8a3.121,3.121,0,0,1-.75,2.154,2.675,2.675,0,0,1-2.084.866,2.538,2.538,0,0,1-2-.831,3.029,3.029,0,0,1-.742-2.095,3.091,3.091,0,0,1,.766-2.165,2.659,2.659,0,0,1,2.065-.842,2.606,2.606,0,0,1,2.015.83A3,3,0,0,1,121.763,16.8Zm-1.313.041a2.573,2.573,0,0,0-.339-1.35,1.248,1.248,0,0,0-1.134-.681,1.266,1.266,0,0,0-1.16.681,2.612,2.612,0,0,0-.339,1.373,2.574,2.574,0,0,0,.339,1.35,1.277,1.277,0,0,0,1.148.681A1.261,1.261,0,0,0,120.1,18.2,2.548,2.548,0,0,0,120.45,16.84Z" transform="translate(962.679 573.806)"/>
    <path id="Path_493" data-name="Path 493" d="M129.732,19.69H128.6l-.093-.655h-.036a1.947,1.947,0,0,1-1.662.784,1.714,1.714,0,0,1-1.3-.515,1.616,1.616,0,0,1-.446-1.158,1.768,1.768,0,0,1,.872-1.592,4.53,4.53,0,0,1,2.454-.538V15.91q0-1.124-1.182-1.124a2.643,2.643,0,0,0-1.483.421l-.257-.83a3.648,3.648,0,0,1,1.951-.491q2.23,0,2.232,2.353v2.095A8.84,8.84,0,0,0,129.732,19.69Zm-1.313-1.955v-.877q-2.092-.036-2.092,1.146a.859.859,0,0,0,.242.667.885.885,0,0,0,.618.222,1.276,1.276,0,0,0,.773-.263,1.076,1.076,0,0,0,.438-.673A1.058,1.058,0,0,0,128.419,17.736Z" transform="translate(960.83 573.806)"/>
    <path id="Path_494" data-name="Path 494" d="M138.61,19.034h-1.122l-.059-.913h-.036a1.89,1.89,0,0,1-1.827,1.043,2.139,2.139,0,0,1-1.708-.807,3.144,3.144,0,0,1-.678-2.095,3.3,3.3,0,0,1,.737-2.236,2.268,2.268,0,0,1,1.757-.8,1.7,1.7,0,0,1,1.6.772h.025V10.735h1.266V17.5Q138.566,18.332,138.61,19.034Zm-1.31-2.4v-.948a1.855,1.855,0,0,0-.036-.4,1.441,1.441,0,0,0-.457-.766,1.245,1.245,0,0,0-.846-.31,1.3,1.3,0,0,0-1.113.562,2.41,2.41,0,0,0-.405,1.44,2.246,2.246,0,0,0,.389,1.37,1.3,1.3,0,0,0,1.105.561,1.219,1.219,0,0,0,1-.468A1.559,1.559,0,0,0,137.3,16.635Z" transform="translate(959.138 574.289)"/>
    <path id="Path_495" data-name="Path 495" d="M152.238,16.8a3.121,3.121,0,0,1-.75,2.154,2.674,2.674,0,0,1-2.084.866,2.545,2.545,0,0,1-2-.831,3.029,3.029,0,0,1-.743-2.095,3.092,3.092,0,0,1,.766-2.165,2.658,2.658,0,0,1,2.068-.842,2.6,2.6,0,0,1,2.012.83A3,3,0,0,1,152.238,16.8Zm-1.311.041a2.573,2.573,0,0,0-.339-1.35,1.251,1.251,0,0,0-1.136-.681,1.271,1.271,0,0,0-1.16.681,2.6,2.6,0,0,0-.339,1.373,2.574,2.574,0,0,0,.339,1.35,1.277,1.277,0,0,0,1.148.681,1.262,1.262,0,0,0,1.135-.693A2.562,2.562,0,0,0,150.927,16.84Z" transform="translate(956.327 573.806)"/>
    <path id="Path_496" data-name="Path 496" d="M160.982,19.69h-1.263V16.431q0-1.506-1.148-1.506a1.138,1.138,0,0,0-.913.414,1.465,1.465,0,0,0-.351.975v3.374h-1.267V15.626q0-.749-.044-1.628h1.111l.059.889h.036a1.84,1.84,0,0,1,.655-.687,2.143,2.143,0,0,1,1.148-.32,1.816,1.816,0,0,1,1.323.515,2.5,2.5,0,0,1,.655,1.885Z" transform="translate(954.383 573.804)"/>
    <path id="Path_497" data-name="Path 497" d="M172.135,14.607h-1.393V17.37c0,.7.248,1.054.738,1.054a2.228,2.228,0,0,0,.564-.059l.032.959a2.84,2.84,0,0,1-.982.141,1.511,1.511,0,0,1-1.169-.456,2.23,2.23,0,0,1-.423-1.534V14.607h-.831v-.947h.831V12.617l1.24-.374v1.416h1.392v.948Z" transform="translate(951.741 574.06)"/>
    <path id="Path_498" data-name="Path 498" d="M180.2,19.034h-1.266V15.8q0-1.53-1.145-1.53a1.206,1.206,0,0,0-1.206.887,1.568,1.568,0,0,0-.059.455v3.421h-1.263v-8.3h1.263v3.428h.025a1.911,1.911,0,0,1,1.708-.935,1.764,1.764,0,0,1,1.3.515,2.591,2.591,0,0,1,.643,1.908Z" transform="translate(950.367 574.286)"/>
    <path id="Path_499" data-name="Path 499" d="M188.9,16.574a3.067,3.067,0,0,1-.047.573h-3.793a1.657,1.657,0,0,0,.549,1.288,1.882,1.882,0,0,0,1.241.4,4.189,4.189,0,0,0,1.534-.269l.2.879a4.76,4.76,0,0,1-1.909.351,2.756,2.756,0,0,1-2.076-.778,2.865,2.865,0,0,1-.754-2.089,3.256,3.256,0,0,1,.7-2.142,2.419,2.419,0,0,1,1.988-.912,2.117,2.117,0,0,1,1.86.912A3.039,3.039,0,0,1,188.9,16.574Zm-1.207-.327a1.7,1.7,0,0,0-.245-.971,1.1,1.1,0,0,0-1.006-.527,1.2,1.2,0,0,0-1.007.515,1.918,1.918,0,0,0-.375.984Z" transform="translate(948.58 573.807)"/>
  </g>
</svg>
